# xmcd
#
# Track frame offsets:
#	150
#	20608
#	37474
#	54343
#	72444
#	91593
#	109320
#	125868
#	145444
#	161553
#
# Disc length: 2425 seconds
#
# Revision: 1
# Processed by: cddbd v1.5.2PL0 Copyright (c) Steve Scherf et al.
# Submitted via: audiograbber 1.83.01
#
DISCID=9509770a
DTITLE=Pete Bernhard - Straight Line
DYEAR=1900
DGENRE=
TTITLE0=Orphan
TTITLE1=Lights on Me
TTITLE2=Warning
TTITLE3=Mint Condition
TTITLE4=Mr. Mudd and Mr. Gold
TTITLE5=Pray for Rain
TTITLE6=Straight Line
TTITLE7=Satisfied
TTITLE8=Sugar Cane
TTITLE9=8th and Main
EXTD=
EXTT0=
EXTT1=
EXTT2=
EXTT3=
EXTT4=
EXTT5=
EXTT6=
EXTT7=
EXTT8=
EXTT9=
PLAYORDER=
